<svg width="186" height="44" viewBox="0 0 186 44" fill="none" xmlns="http://www.w3.org/2000/svg">
<path d="M89 16.5C92.0376 16.5 94.5 14.0376 94.5 11C94.5 7.96243 92.0376 5.5 89 5.5C85.9624 5.5 83.5 7.96243 83.5 11C83.5 14.0376 85.9624 16.5 89 16.5Z" stroke="#6B5FE6" stroke-width="3.66667" stroke-linecap="round" stroke-linejoin="round"/>
<path d="M89 38.5C92.0376 38.5 94.5 36.0376 94.5 33C94.5 29.9624 92.0376 27.5 89 27.5C85.9624 27.5 83.5 29.9624 83.5 33C83.5 36.0376 85.9624 38.5 89 38.5Z" stroke="#6B5FE6" stroke-width="3.66667" stroke-linecap="round" stroke-linejoin="round"/>
<path d="M114.667 7.33325L92.8867 29.1133" stroke="#6B5FE6" stroke-width="3.66667" stroke-linecap="round" stroke-linejoin="round"/>
<path d="M104.528 26.5466L114.667 36.6666" stroke="#6B5FE6" stroke-width="3.66667" stroke-linecap="round" stroke-linejoin="round"/>
<path d="M92.8867 14.8867L100 22.0001" stroke="#6B5FE6" stroke-width="3.66667" stroke-linecap="round" stroke-linejoin="round"/>
<path d="M12.48 36.256C10.9653 36.256 9.664 35.936 8.576 35.296C7.488 34.656 6.656 33.6853 6.08 32.384C5.504 31.0613 5.216 29.3973 5.216 27.392C5.216 25.3653 5.51467 23.7013 6.112 22.4C6.73067 21.0987 7.584 20.128 8.672 19.488C9.76 18.848 11.0293 18.528 12.48 18.528C14.1013 18.528 15.552 18.8907 16.832 19.616C18.1333 20.3413 19.1573 21.3653 19.904 22.688C20.672 24.0107 21.056 25.5787 21.056 27.392C21.056 29.184 20.672 30.7413 19.904 32.064C19.1573 33.3867 18.1333 34.4213 16.832 35.168C15.552 35.8933 14.1013 36.256 12.48 36.256ZM2.304 36V12.256H7.296V22.272L6.976 27.36L7.072 32.48V36H2.304ZM11.616 32.16C12.448 32.16 13.184 31.968 13.824 31.584C14.4853 31.2 15.008 30.656 15.392 29.952C15.7973 29.2267 16 28.3733 16 27.392C16 26.3893 15.7973 25.536 15.392 24.832C15.008 24.128 14.4853 23.584 13.824 23.2C13.184 22.816 12.448 22.624 11.616 22.624C10.784 22.624 10.0373 22.816 9.376 23.2C8.71467 23.584 8.192 24.128 7.808 24.832C7.424 25.536 7.232 26.3893 7.232 27.392C7.232 28.3733 7.424 29.2267 7.808 29.952C8.192 30.656 8.71467 31.2 9.376 31.584C10.0373 31.968 10.784 32.16 11.616 32.16ZM34.6765 36V32.64L34.3565 31.904V25.888C34.3565 24.8213 34.0258 23.9893 33.3645 23.392C32.7245 22.7947 31.7325 22.496 30.3885 22.496C29.4712 22.496 28.5645 22.6453 27.6685 22.944C26.7938 23.2213 26.0472 23.6053 25.4285 24.096L23.6365 20.608C24.5752 19.9467 25.7058 19.4347 27.0285 19.072C28.3512 18.7093 29.6952 18.528 31.0605 18.528C33.6845 18.528 35.7218 19.1467 37.1725 20.384C38.6232 21.6213 39.3485 23.552 39.3485 26.176V36H34.6765ZM29.4285 36.256C28.0845 36.256 26.9325 36.032 25.9725 35.584C25.0125 35.1147 24.2765 34.4853 23.7645 33.696C23.2525 32.9067 22.9965 32.0213 22.9965 31.04C22.9965 30.016 23.2418 29.12 23.7325 28.352C24.2445 27.584 25.0445 26.9867 26.1325 26.56C27.2205 26.112 28.6392 25.888 30.3885 25.888H34.9645V28.8H30.9325C29.7592 28.8 28.9485 28.992 28.5005 29.376C28.0738 29.76 27.8605 30.24 27.8605 30.816C27.8605 31.456 28.1058 31.968 28.5965 32.352C29.1085 32.7147 29.8018 32.896 30.6765 32.896C31.5085 32.896 32.2552 32.704 32.9165 32.32C33.5778 31.9147 34.0578 31.328 34.3565 30.56L35.1245 32.864C34.7618 33.9733 34.1005 34.816 33.1405 35.392C32.1805 35.968 30.9432 36.256 29.4285 36.256ZM43.8665 36V18.784H48.6345V23.648L47.9625 22.24C48.4745 21.024 49.2958 20.1067 50.4265 19.488C51.5572 18.848 52.9332 18.528 54.5545 18.528V23.136C54.3412 23.1147 54.1492 23.104 53.9785 23.104C53.8078 23.0827 53.6265 23.072 53.4345 23.072C52.0692 23.072 50.9598 23.4667 50.1065 24.256C49.2745 25.024 48.8585 26.2293 48.8585 27.872V36H43.8665ZM67.73 36.256C66.2153 36.256 64.914 35.936 63.826 35.296C62.738 34.656 61.906 33.6853 61.33 32.384C60.754 31.0613 60.466 29.3973 60.466 27.392C60.466 25.3653 60.7647 23.7013 61.362 22.4C61.9807 21.0987 62.834 20.128 63.922 19.488C65.01 18.848 66.2793 18.528 67.73 18.528C69.3513 18.528 70.802 18.8907 72.082 19.616C73.3833 20.3413 74.4073 21.3653 75.154 22.688C75.922 24.0107 76.306 25.5787 76.306 27.392C76.306 29.184 75.922 30.7413 75.154 32.064C74.4073 33.3867 73.3833 34.4213 72.082 35.168C70.802 35.8933 69.3513 36.256 67.73 36.256ZM57.554 36V12.256H62.546V22.272L62.226 27.36L62.322 32.48V36H57.554ZM66.866 32.16C67.698 32.16 68.434 31.968 69.074 31.584C69.7353 31.2 70.258 30.656 70.642 29.952C71.0473 29.2267 71.25 28.3733 71.25 27.392C71.25 26.3893 71.0473 25.536 70.642 24.832C70.258 24.128 69.7353 23.584 69.074 23.2C68.434 22.816 67.698 22.624 66.866 22.624C66.034 22.624 65.2873 22.816 64.626 23.2C63.9647 23.584 63.442 24.128 63.058 24.832C62.674 25.536 62.482 26.3893 62.482 27.392C62.482 28.3733 62.674 29.2267 63.058 29.952C63.442 30.656 63.9647 31.2 64.626 31.584C65.2873 31.968 66.034 32.16 66.866 32.16Z" fill="white"/>
<path d="M134.864 36V32.64L134.544 31.904V25.888C134.544 24.8213 134.213 23.9893 133.552 23.392C132.912 22.7947 131.92 22.496 130.576 22.496C129.659 22.496 128.752 22.6453 127.856 22.944C126.981 23.2213 126.235 23.6053 125.616 24.096L123.824 20.608C124.763 19.9467 125.893 19.4347 127.216 19.072C128.539 18.7093 129.883 18.528 131.248 18.528C133.872 18.528 135.909 19.1467 137.36 20.384C138.811 21.6213 139.536 23.552 139.536 26.176V36H134.864ZM129.616 36.256C128.272 36.256 127.12 36.032 126.16 35.584C125.2 35.1147 124.464 34.4853 123.952 33.696C123.44 32.9067 123.184 32.0213 123.184 31.04C123.184 30.016 123.429 29.12 123.92 28.352C124.432 27.584 125.232 26.9867 126.32 26.56C127.408 26.112 128.827 25.888 130.576 25.888H135.152V28.8H131.12C129.947 28.8 129.136 28.992 128.688 29.376C128.261 29.76 128.048 30.24 128.048 30.816C128.048 31.456 128.293 31.968 128.784 32.352C129.296 32.7147 129.989 32.896 130.864 32.896C131.696 32.896 132.443 32.704 133.104 32.32C133.765 31.9147 134.245 31.328 134.544 30.56L135.312 32.864C134.949 33.9733 134.288 34.816 133.328 35.392C132.368 35.968 131.131 36.256 129.616 36.256ZM154.23 36.256C152.779 36.256 151.51 35.936 150.422 35.296C149.334 34.656 148.481 33.6853 147.862 32.384C147.265 31.0613 146.966 29.3973 146.966 27.392C146.966 25.3653 147.254 23.7013 147.83 22.4C148.406 21.0987 149.238 20.128 150.326 19.488C151.414 18.848 152.715 18.528 154.23 18.528C155.851 18.528 157.302 18.9013 158.582 19.648C159.883 20.3733 160.907 21.3973 161.654 22.72C162.422 24.0427 162.806 25.6 162.806 27.392C162.806 29.2053 162.422 30.7733 161.654 32.096C160.907 33.4187 159.883 34.4427 158.582 35.168C157.302 35.8933 155.851 36.256 154.23 36.256ZM144.054 42.208V18.784H148.822V22.304L148.726 27.424L149.046 32.512V42.208H144.054ZM153.366 32.16C154.198 32.16 154.934 31.968 155.574 31.584C156.235 31.2 156.758 30.656 157.142 29.952C157.547 29.2267 157.75 28.3733 157.75 27.392C157.75 26.3893 157.547 25.536 157.142 24.832C156.758 24.128 156.235 23.584 155.574 23.2C154.934 22.816 154.198 22.624 153.366 22.624C152.534 22.624 151.787 22.816 151.126 23.2C150.465 23.584 149.942 24.128 149.558 24.832C149.174 25.536 148.982 26.3893 148.982 27.392C148.982 28.3733 149.174 29.2267 149.558 29.952C149.942 30.656 150.465 31.2 151.126 31.584C151.787 31.968 152.534 32.16 153.366 32.16ZM176.324 36.256C174.873 36.256 173.604 35.936 172.516 35.296C171.428 34.656 170.574 33.6853 169.956 32.384C169.358 31.0613 169.06 29.3973 169.06 27.392C169.06 25.3653 169.348 23.7013 169.924 22.4C170.5 21.0987 171.332 20.128 172.42 19.488C173.508 18.848 174.809 18.528 176.324 18.528C177.945 18.528 179.396 18.9013 180.676 19.648C181.977 20.3733 183.001 21.3973 183.748 22.72C184.516 24.0427 184.9 25.6 184.9 27.392C184.9 29.2053 184.516 30.7733 183.748 32.096C183.001 33.4187 181.977 34.4427 180.676 35.168C179.396 35.8933 177.945 36.256 176.324 36.256ZM166.148 42.208V18.784H170.916V22.304L170.82 27.424L171.14 32.512V42.208H166.148ZM175.46 32.16C176.292 32.16 177.028 31.968 177.668 31.584C178.329 31.2 178.852 30.656 179.236 29.952C179.641 29.2267 179.844 28.3733 179.844 27.392C179.844 26.3893 179.641 25.536 179.236 24.832C178.852 24.128 178.329 23.584 177.668 23.2C177.028 22.816 176.292 22.624 175.46 22.624C174.628 22.624 173.881 22.816 173.22 23.2C172.558 23.584 172.036 24.128 171.652 24.832C171.268 25.536 171.076 26.3893 171.076 27.392C171.076 28.3733 171.268 29.2267 171.652 29.952C172.036 30.656 172.558 31.2 173.22 31.584C173.881 31.968 174.628 32.16 175.46 32.16Z" fill="white"/>
</svg>
